<svg width="400" height="400" viewBox="0 0 400 400" fill="none" xmlns="http://www.w3.org/2000/svg">
<path d="M57 116.502C57 85.1109 78.4909 57.8006 109.002 50.4189V50.4189C115.63 48.8154 122.461 48.2181 129.266 48.647L216.435 54.1409C295.457 59.1213 357 124.665 357 203.844V213C357 295.843 289.843 363 207 363V363C124.157 363 57 295.843 57 213V116.502Z" fill="url(#paint0_linear_12_39)"/>
<g filter="url(#filter0_d_12_39)">
<path d="M207.686 158.353C212.252 160.963 214.447 163.666 214.272 166.46C214.192 167.738 213.473 169.617 212.116 172.096L174.859 237.094C173.871 238.796 172.423 240.148 170.517 241.151C168.695 242.079 166.827 242.483 164.91 242.363L163.713 242.288C161.717 242.163 159.833 241.524 158.061 240.371C156.375 239.143 155.148 237.623 154.379 235.812L125.525 166.672C124.488 164.042 124.009 162.089 124.089 160.811C124.264 158.017 126.779 155.609 131.635 153.589C134.355 152.397 136.394 151.843 137.751 151.928C139.188 152.018 140.256 152.245 140.955 152.61C141.653 152.974 142.297 153.575 142.886 154.414C143.544 155.417 144.115 156.535 144.599 157.767C145.168 158.925 146.517 162.336 148.648 168.001C150.783 173.585 153.055 179.539 155.464 185.862C157.953 192.19 160.263 198.186 162.393 203.85C164.608 209.439 165.855 212.564 166.135 213.222L193.374 162.266C194.107 160.789 194.741 159.626 195.275 158.778C196.848 156.712 198.672 155.744 200.748 155.874C202.823 156.004 205.136 156.83 207.686 158.353ZM213.247 233.127C211.331 230.442 210.435 228.101 210.56 226.105C210.69 224.029 212.577 221.422 216.22 218.283C218.337 216.492 220.512 215.667 222.748 215.807C224.984 215.947 227.973 218.138 231.715 222.38C232.747 223.808 234.262 225.225 236.258 226.632C238.259 227.96 240.137 228.679 241.894 228.789C249.319 229.254 253.222 226.453 253.602 220.385C253.717 218.548 252.774 216.966 250.773 215.638C248.857 214.236 246.4 213.16 243.401 212.411C240.402 211.662 237.183 210.579 233.745 209.161C230.312 207.664 227.131 205.982 224.202 204.115C221.273 202.248 218.883 199.453 217.032 195.73C215.266 191.932 214.543 187.478 214.863 182.368C215.303 175.342 218.281 169.397 223.796 164.532C229.396 159.592 236.707 157.405 245.729 157.97C250.519 158.27 254.831 159.182 258.663 160.704C262.58 162.152 265.257 163.562 266.694 164.935L269.546 167.398C271.876 169.868 272.991 171.902 272.891 173.499C272.791 175.096 271.696 177.231 269.604 179.906C266.639 183.728 263.72 185.549 260.846 185.369C259.169 185.264 257.143 184.335 254.768 182.584C254.538 182.409 254.084 181.98 253.406 181.296C252.807 180.617 252.241 180.061 251.707 179.626C250.095 178.483 247.972 177.829 245.337 177.664C242.782 177.504 240.586 178.008 238.75 179.175C236.998 180.268 236.052 181.932 235.912 184.168C235.777 186.324 236.665 188.143 238.576 189.625C240.567 191.112 243.064 192.191 246.068 192.86C249.072 193.529 252.338 194.495 255.866 195.758C259.399 196.941 262.638 198.346 265.582 199.974C268.526 201.601 270.883 204.273 272.654 207.991C274.51 211.635 275.276 216.051 274.95 221.241C274.625 226.431 273.3 230.957 270.974 234.819C268.653 238.601 265.748 241.465 262.26 243.411C255.527 247.237 248.488 248.921 241.143 248.461C237.39 248.226 233.864 247.564 230.566 246.475C227.273 245.307 224.63 243.98 222.64 242.492C218.568 239.672 215.769 237.012 214.242 234.512L213.247 233.127Z" fill="white"/>
</g>
<defs>
<filter id="filter0_d_12_39" x="115.078" y="150.392" width="167.707" height="108.072" filterUnits="userSpaceOnUse" color-interpolation-filters="sRGB">
<feFlood flood-opacity="0" result="BackgroundImageFix"/>
<feColorMatrix in="SourceAlpha" type="matrix" values="0 0 0 0 0 0 0 0 0 0 0 0 0 0 0 0 0 0 127 0" result="hardAlpha"/>
<feOffset dy="4"/>
<feGaussianBlur stdDeviation="2"/>
<feComposite in2="hardAlpha" operator="out"/>
<feColorMatrix type="matrix" values="0 0 0 0 0 0 0 0 0 0 0 0 0 0 0 0 0 0 0.25 0"/>
<feBlend mode="normal" in2="BackgroundImageFix" result="effect1_dropShadow_12_39"/>
<feBlend mode="normal" in="SourceGraphic" in2="effect1_dropShadow_12_39" result="shape"/>
</filter>
<linearGradient id="paint0_linear_12_39" x1="65.5" y1="100" x2="329.5" y2="303.5" gradientUnits="userSpaceOnUse">
<stop stop-color="#FFE53B"/>
<stop offset="0.755208" stop-color="#FD3838"/>
</linearGradient>
</defs>
</svg>
