<svg width="300" height="315" viewBox="0 0 300 315" fill="none" xmlns="http://www.w3.org/2000/svg">
<path d="M0 68.5021C0 37.1109 21.4909 9.80058 52.0018 2.41891V2.41891C58.6296 0.815429 65.4608 0.218118 72.2663 0.647033L159.435 6.14086C238.457 11.1213 300 76.6646 300 155.844V165C300 247.843 232.843 315 150 315V315C67.1573 315 0 247.843 0 165V68.5021Z" fill="url(#paint0_linear_9_36)"/>
<g filter="url(#filter0_d_9_36)">
<path d="M150.686 110.353C155.252 112.963 157.447 115.666 157.272 118.46C157.192 119.738 156.473 121.617 155.116 124.096L117.859 189.094C116.871 190.796 115.423 192.148 113.517 193.151C111.695 194.079 109.827 194.483 107.91 194.363L106.713 194.288C104.717 194.163 102.833 193.524 101.061 192.371C99.3749 191.143 98.1476 189.623 97.3793 187.812L68.5253 118.672C67.4877 116.042 67.0089 114.089 67.0889 112.811C67.264 110.017 69.7794 107.609 74.6352 105.589C77.3551 104.397 79.3937 103.843 80.751 103.928C82.1882 104.018 83.2561 104.245 83.9547 104.61C84.6533 104.974 85.2969 105.575 85.8857 106.414C86.5442 107.417 87.1155 108.535 87.5994 109.767C88.1681 110.925 89.5175 114.336 91.6475 120.001C93.7826 125.585 96.0548 131.539 98.4642 137.862C100.953 144.19 103.263 150.186 105.393 155.85C107.608 161.439 108.855 164.564 109.135 165.222L136.374 114.266C137.107 112.789 137.741 111.626 138.275 110.778C139.848 108.712 141.672 107.744 143.748 107.874C145.823 108.004 148.136 108.83 150.686 110.353ZM156.247 185.127C154.331 182.442 153.435 180.101 153.56 178.105C153.69 176.029 155.577 173.422 159.22 170.283C161.337 168.492 163.512 167.667 165.748 167.807C167.984 167.947 170.973 170.138 174.715 174.38C175.747 175.808 177.262 177.225 179.258 178.632C181.259 179.96 183.137 180.679 184.894 180.789C192.319 181.254 196.222 178.453 196.602 172.385C196.717 170.548 195.774 168.966 193.773 167.638C191.857 166.236 189.4 165.16 186.401 164.411C183.402 163.662 180.183 162.579 176.745 161.161C173.312 159.664 170.131 157.982 167.202 156.115C164.273 154.248 161.883 151.453 160.032 147.73C158.266 143.932 157.543 139.478 157.863 134.368C158.303 127.342 161.281 121.397 166.796 116.532C172.396 111.592 179.707 109.405 188.729 109.97C193.519 110.27 197.831 111.182 201.663 112.704C205.58 114.152 208.257 115.562 209.694 116.935L212.546 119.398C214.876 121.868 215.991 123.902 215.891 125.499C215.791 127.096 214.696 129.231 212.604 131.906C209.639 135.728 206.72 137.549 203.846 137.369C202.169 137.264 200.143 136.335 197.768 134.584C197.538 134.409 197.084 133.98 196.406 133.296C195.807 132.617 195.241 132.061 194.707 131.626C193.095 130.483 190.972 129.829 188.337 129.664C185.782 129.504 183.586 130.008 181.75 131.175C179.998 132.268 179.052 133.932 178.912 136.168C178.777 138.324 179.665 140.143 181.576 141.625C183.567 143.112 186.064 144.191 189.068 144.86C192.072 145.529 195.338 146.495 198.866 147.758C202.399 148.941 205.638 150.346 208.582 151.974C211.526 153.601 213.883 156.273 215.654 159.991C217.51 163.635 218.276 168.051 217.95 173.241C217.625 178.431 216.3 182.957 213.974 186.819C211.653 190.601 208.748 193.465 205.26 195.411C198.527 199.237 191.488 200.921 184.143 200.461C180.39 200.226 176.864 199.564 173.566 198.475C170.273 197.307 167.63 195.98 165.64 194.492C161.568 191.672 158.769 189.012 157.242 186.512L156.247 185.127Z" fill="white"/>
</g>
<defs>
<filter id="filter0_d_9_36" x="58.0775" y="102.392" width="167.707" height="108.072" filterUnits="userSpaceOnUse" color-interpolation-filters="sRGB">
<feFlood flood-opacity="0" result="BackgroundImageFix"/>
<feColorMatrix in="SourceAlpha" type="matrix" values="0 0 0 0 0 0 0 0 0 0 0 0 0 0 0 0 0 0 127 0" result="hardAlpha"/>
<feOffset dy="4"/>
<feGaussianBlur stdDeviation="2"/>
<feComposite in2="hardAlpha" operator="out"/>
<feColorMatrix type="matrix" values="0 0 0 0 0 0 0 0 0 0 0 0 0 0 0 0 0 0 0.25 0"/>
<feBlend mode="normal" in2="BackgroundImageFix" result="effect1_dropShadow_9_36"/>
<feBlend mode="normal" in="SourceGraphic" in2="effect1_dropShadow_9_36" result="shape"/>
</filter>
<linearGradient id="paint0_linear_9_36" x1="8.5" y1="52" x2="272.5" y2="255.5" gradientUnits="userSpaceOnUse">
<stop stop-color="#FFE53B"/>
<stop offset="0.755208" stop-color="#FD3838"/>
</linearGradient>
</defs>
</svg>
